<svg xmlns="http://www.w3.org/2000/svg" xmlns:xlink="http://www.w3.org/1999/xlink" width="500" zoomAndPan="magnify" viewBox="0 0 375 157.5" height="210" preserveAspectRatio="xMidYMid meet" version="1.0"><defs><g/><clipPath id="0f90e516b6"><path d="M 210 0 L 374.40625 0 L 374.40625 157 L 210 157 Z M 210 0 " clip-rule="nonzero"/></clipPath><clipPath id="ad39100eb6"><path d="M 0.59375 0 L 166 0 L 166 157 L 0.59375 157 Z M 0.59375 0 " clip-rule="nonzero"/></clipPath></defs><g fill="#000000" fill-opacity="1"><g transform="translate(183.064464, 72.51978)"><g><path d="M 8.21875 -2.46875 C 8.21875 -1.644531 7.882812 -1 7.21875 -0.53125 C 6.550781 -0.0703125 5.628906 0.15625 4.453125 0.15625 C 3.285156 0.15625 2.394531 -0.0234375 1.78125 -0.390625 C 1.164062 -0.753906 0.757812 -1.328125 0.5625 -2.109375 L 2.484375 -2.390625 C 2.597656 -1.992188 2.785156 -1.710938 3.046875 -1.546875 C 3.316406 -1.378906 3.785156 -1.296875 4.453125 -1.296875 C 5.054688 -1.296875 5.5 -1.375 5.78125 -1.53125 C 6.0625 -1.6875 6.203125 -1.929688 6.203125 -2.265625 C 6.203125 -2.523438 6.085938 -2.734375 5.859375 -2.890625 C 5.640625 -3.054688 5.257812 -3.191406 4.71875 -3.296875 C 3.476562 -3.546875 2.644531 -3.773438 2.21875 -3.984375 C 1.789062 -4.191406 1.460938 -4.460938 1.234375 -4.796875 C 1.003906 -5.140625 0.890625 -5.550781 0.890625 -6.03125 C 0.890625 -6.84375 1.195312 -7.472656 1.8125 -7.921875 C 2.4375 -8.367188 3.320312 -8.59375 4.46875 -8.59375 C 5.46875 -8.59375 6.269531 -8.394531 6.875 -8 C 7.488281 -7.613281 7.867188 -7.050781 8.015625 -6.3125 L 6.078125 -6.109375 C 6.015625 -6.453125 5.863281 -6.707031 5.625 -6.875 C 5.382812 -7.050781 5 -7.140625 4.46875 -7.140625 C 3.945312 -7.140625 3.554688 -7.070312 3.296875 -6.9375 C 3.035156 -6.800781 2.90625 -6.578125 2.90625 -6.265625 C 2.90625 -6.023438 3.003906 -5.832031 3.203125 -5.6875 C 3.398438 -5.539062 3.738281 -5.421875 4.21875 -5.328125 C 4.875 -5.203125 5.457031 -5.066406 5.96875 -4.921875 C 6.476562 -4.773438 6.890625 -4.601562 7.203125 -4.40625 C 7.515625 -4.207031 7.757812 -3.953125 7.9375 -3.640625 C 8.125 -3.335938 8.21875 -2.945312 8.21875 -2.46875 Z M 8.21875 -2.46875 "/></g></g></g><path fill="#ac1929" d="M 219.0625 63.414062 L 165.027344 157 L 128.351562 93.695312 L 182.453125 0 L 219.0625 63.414062 " fill-opacity="1" fill-rule="nonzero"/><g clip-path="url(#0f90e516b6)"><path fill="#ed1c24" d="M 301.011719 0 L 210.058594 157 L 283.808594 157 L 374.449219 0 L 301.011719 0 " fill-opacity="1" fill-rule="nonzero"/></g><g clip-path="url(#ad39100eb6)"><path fill="#ed1c24" d="M 0.632812 0 L 91.277344 157 L 165.027344 157 L 74.074219 0 L 0.632812 0 " fill-opacity="1" fill-rule="nonzero"/></g></svg>